<svg width="20" height="20" viewBox="0 0 20 20" fill="none" xmlns="http://www.w3.org/2000/svg">
<path fill-rule="evenodd" clip-rule="evenodd" d="M10.0001 3.54163C10.3453 3.54163 10.6251 3.82145 10.6251 4.16663V9.99996V15.8333C10.6251 16.1785 10.3453 16.4583 10.0001 16.4583C9.6549 16.4583 9.37508 16.1785 9.37508 15.8333V4.16663C9.37508 3.82145 9.6549 3.54163 10.0001 3.54163Z" fill="#080B12" style="fill:#080B12;fill:color(display-p3 0.0314 0.0431 0.0706);fill-opacity:1;"/>
<path fill-rule="evenodd" clip-rule="evenodd" d="M16.4584 9.99996C16.4584 10.3451 16.1786 10.625 15.8334 10.625L4.16675 10.625C3.82157 10.625 3.54175 10.3451 3.54175 9.99996C3.54175 9.65478 3.82157 9.37496 4.16675 9.37496L15.8334 9.37496C16.1786 9.37496 16.4584 9.65478 16.4584 9.99996Z" fill="#080B12" style="fill:#080B12;fill:color(display-p3 0.0314 0.0431 0.0706);fill-opacity:1;"/>
</svg>
