<svg width="20" height="20" viewBox="0 0 20 20" fill="none" xmlns="http://www.w3.org/2000/svg">
<g clip-path="url(#clip0_915_7133)">
<path fill-rule="evenodd" clip-rule="evenodd" d="M2.3731 0.691849C1.48206 0.853409 0.796844 1.56543 0.681124 2.45001C0.663464 2.58507 0.659284 3.83853 0.664364 7.47001C0.670864 12.1123 0.672664 12.3157 0.708324 12.45C0.942724 13.3325 1.63144 13.9394 2.51216 14.0396C2.65106 14.0554 3.42804 14.0603 5.12 14.056L7.53 14.05L7.66006 13.9884C7.81992 13.9126 7.9694 13.7671 8.03838 13.62C8.08362 13.5236 8.09 13.484 8.09 13.3C8.09 13.1177 8.08354 13.0768 8.04104 12.99C7.973 12.8511 7.82224 12.6978 7.68536 12.6285L7.57 12.57L5.09 12.56L2.61 12.55L2.50786 12.5038C2.3811 12.4464 2.2761 12.3407 2.21598 12.21L2.17 12.11L2.16482 7.99501C2.16196 5.73175 2.16428 3.88001 2.16998 3.88001C2.17566 3.88001 3.7035 4.95675 5.56516 6.27275C7.42682 7.58875 8.9905 8.68451 9.04 8.70775C9.11372 8.74237 9.16798 8.75001 9.3401 8.75001C9.52428 8.75001 9.56252 8.74383 9.6501 8.69999C9.70504 8.67247 11.2683 7.57671 13.1239 6.26499C14.9796 4.95325 16.5028 3.88001 16.5089 3.88001C16.515 3.88001 16.52 5.21037 16.52 6.83637C16.52 10.1266 16.5102 9.89595 16.6595 10.1045C16.9935 10.571 17.6992 10.5028 17.9481 9.98001L18.01 9.85001L18.0162 6.24001C18.0228 2.39949 18.0232 2.41905 17.9266 2.12013C17.7006 1.42041 17.1594 0.911889 16.43 0.713869L16.27 0.670429L9.4 0.666909C3.53596 0.663909 2.50702 0.667569 2.3731 0.691849ZM2.57468 2.18827C2.52224 2.20241 2.47474 2.21861 2.46908 2.22425C2.46344 2.22991 4.00692 3.32851 5.89902 4.66561L9.33922 7.09669L12.782 4.66375L16.2248 2.23083L16.1574 2.20043C16.0976 2.17343 15.3366 2.16959 9.38 2.16629C3.96598 2.16327 2.65158 2.16753 2.57468 2.18827ZM14.1875 9.60859C13.8487 9.68571 13.549 9.92121 13.393 10.2328C13.3647 10.2893 13.3047 10.4823 13.2596 10.6616C13.1645 11.0399 13.0803 11.2683 12.9301 11.556C12.7709 11.8609 12.6211 12.0587 12.32 12.3618C11.8228 12.8622 11.3118 13.1393 10.61 13.2891C10.3212 13.3507 10.1267 13.4403 9.96928 13.5841C9.77976 13.7574 9.65964 13.964 9.60926 14.2036C9.57214 14.38 9.57214 14.54 9.60926 14.7164C9.65964 14.956 9.77976 15.1626 9.96928 15.3359C10.1263 15.4794 10.321 15.5688 10.61 15.6303C11.0838 15.731 11.5324 15.9227 11.8891 16.1767C12.1176 16.3394 12.4798 16.6965 12.661 16.9377C12.8179 17.1465 13.0081 17.4904 13.11 17.7495C13.1402 17.8263 13.2051 18.0468 13.2542 18.2395C13.3134 18.4719 13.3676 18.6361 13.4151 18.7267C13.5442 18.9731 13.7945 19.1821 14.08 19.2819C14.273 19.3494 14.612 19.349 14.82 19.2809C15.1091 19.1864 15.388 18.9458 15.5119 18.684C15.5396 18.6256 15.6017 18.4259 15.6499 18.2402C15.7468 17.8675 15.7993 17.7231 15.941 17.4392C16.0676 17.1853 16.2425 16.9285 16.4336 16.7159C16.9586 16.1314 17.5424 15.795 18.3197 15.6289C18.5982 15.5694 18.7953 15.4779 18.9507 15.3359C19.2685 15.0454 19.4005 14.6303 19.3107 14.2036C19.26 13.9624 19.1404 13.7576 18.9466 13.5802C18.7906 13.4375 18.6048 13.3533 18.2891 13.2825C17.8747 13.1895 17.5712 13.0735 17.246 12.8835C16.7225 12.5778 16.2334 12.0551 15.9522 11.5008C15.8009 11.2028 15.7498 11.0639 15.6499 10.6798C15.6017 10.4941 15.5396 10.2944 15.5119 10.2361C15.3902 9.97887 15.1108 9.73545 14.83 9.64181C14.6547 9.58337 14.3643 9.56835 14.1875 9.60859ZM14.3273 12.1356C13.9793 12.857 13.3343 13.5899 12.64 14.0528C12.4504 14.1792 12.1614 14.3425 12.025 14.4004C11.9672 14.4249 11.92 14.4517 11.92 14.46C11.92 14.4683 11.9672 14.4951 12.025 14.5196C12.1614 14.5774 12.4503 14.7408 12.64 14.8672C13.3361 15.3312 13.9702 16.0514 14.3301 16.7867L14.4558 17.0435L14.5469 16.8512C14.996 15.9032 15.8551 15.0286 16.7816 14.5763C16.9014 14.5178 16.9995 14.4644 16.9997 14.4575C16.9999 14.4506 16.9528 14.4249 16.895 14.4004C16.7521 14.3398 16.4657 14.1766 16.26 14.0387C15.5391 13.5552 14.9211 12.8469 14.5553 12.085C14.5012 11.9722 14.4535 11.8806 14.4535 11.8806C14.4535 11.8806 14.3948 11.9956 14.3273 12.1356Z" fill="#080B12" style="fill:#080B12;fill:color(display-p3 0.0314 0.0431 0.0706);fill-opacity:1;"/>
</g>
<defs>
<clipPath id="clip0_915_7133">
<rect width="20" height="20" fill="white" style="fill:white;fill-opacity:1;"/>
</clipPath>
</defs>
</svg>
