<svg width="20" height="20" viewBox="0 0 20 20" fill="none" xmlns="http://www.w3.org/2000/svg">
<path fill-rule="evenodd" clip-rule="evenodd" d="M9.61995 0.682171C8.56935 0.801151 7.63097 1.40763 7.08573 2.31999C6.86463 2.68997 6.72217 3.08101 6.64489 3.52999C6.61951 3.67743 6.61173 3.99405 6.60193 5.27999C6.59085 6.73319 6.58727 6.85595 6.55397 6.92999C6.50893 7.03015 6.39447 7.15011 6.28995 7.20669C6.21113 7.24935 6.19223 7.25015 4.99995 7.26109C3.95301 7.27067 3.76913 7.27683 3.63547 7.30679C2.76519 7.50177 2.12313 8.19037 2.00079 9.05999C1.98347 9.18309 1.97867 9.63567 1.98341 10.7004L1.98995 12.1709L2.05557 12.3041C2.12829 12.4518 2.26563 12.5901 2.40805 12.6591C2.52317 12.7148 2.68485 12.7397 2.93199 12.7399L3.13403 12.74L2.71495 14.825C2.31915 16.7943 2.29531 16.9255 2.28557 17.19C2.27751 17.4084 2.28285 17.5074 2.30979 17.64C2.49111 18.5323 3.18835 19.1976 4.06995 19.3196C4.18477 19.3355 5.88721 19.3401 10.1 19.3359L15.97 19.33L16.1602 19.2763C16.9671 19.0485 17.5244 18.4512 17.6908 17.6359C17.717 17.5075 17.7223 17.4067 17.7143 17.19C17.7046 16.9255 17.6808 16.7943 17.285 14.825L16.8659 12.74L17.0679 12.7399C17.4308 12.7397 17.5911 12.6933 17.7685 12.5371C17.8783 12.4404 17.9532 12.3189 17.9915 12.1753C18.0336 12.0171 18.0327 9.26949 17.9905 9.00999C17.8529 8.16489 17.2158 7.49753 16.3644 7.30679C16.2308 7.27683 16.0469 7.27067 15 7.26109C13.8077 7.25015 13.7888 7.24935 13.71 7.20669C13.6054 7.15011 13.491 7.03015 13.4459 6.92999C13.4126 6.85595 13.4091 6.73319 13.398 5.27999C13.3854 3.63635 13.3823 3.57547 13.2905 3.21999C12.8665 1.57805 11.2962 0.492331 9.61995 0.682171ZM9.75165 2.18075C9.32625 2.24773 9.00367 2.40427 8.70249 2.68991C8.47009 2.91031 8.30985 3.16171 8.20351 3.47277C8.11709 3.72559 8.11389 3.78733 8.10083 5.45999L8.08825 7.06999L8.03331 7.24999C7.79483 8.03121 7.22649 8.55645 6.42995 8.73173C6.29089 8.76235 6.11297 8.76845 5.06995 8.77847L3.86995 8.78999L3.77705 8.84459C3.66689 8.90937 3.58909 8.99671 3.53179 9.11999C3.49135 9.20697 3.48975 9.24379 3.48409 10.215L3.47821 11.22H9.99995H16.5217L16.5158 10.215C16.5102 9.24379 16.5086 9.20697 16.4681 9.11999C16.4108 8.99671 16.333 8.90937 16.2229 8.84459L16.13 8.78999L14.93 8.77847C13.6463 8.76615 13.6051 8.76305 13.29 8.65539C12.7041 8.45529 12.2142 7.96953 12.0114 7.38773C11.9009 7.07061 11.9 7.05519 11.8998 5.54583C11.8996 4.04017 11.888 3.78481 11.8075 3.52049C11.6469 2.99279 11.2705 2.55699 10.786 2.33769C10.488 2.20277 10.0418 2.13507 9.75165 2.18075ZM4.22389 14.975C3.97869 16.2042 3.77849 17.2376 3.77901 17.2714C3.77953 17.3051 3.79425 17.3809 3.81173 17.4397C3.85005 17.5688 4.02439 17.7547 4.14995 17.8004C4.21865 17.8254 4.72393 17.8303 7.72495 17.835L11.22 17.8405L11.2204 16.5853C11.2208 15.2792 11.2292 15.1163 11.3047 14.96C11.36 14.8453 11.5008 14.6941 11.6081 14.6342C11.8162 14.5179 12.1058 14.5076 12.3071 14.6094C12.5261 14.7203 12.6808 14.9274 12.7187 15.1606C12.7317 15.2412 12.7397 15.7712 12.7398 16.5656L12.74 17.8412L14.255 17.835C15.5112 17.8299 15.7836 17.8239 15.85 17.8001C15.9753 17.755 16.1498 17.5691 16.1882 17.4397C16.2057 17.3809 16.2204 17.3051 16.2209 17.2714C16.2214 17.2376 16.0212 16.2042 15.776 14.975L15.3302 12.74H9.99995H4.66973L4.22389 14.975Z" fill="#080B12" style="fill:#080B12;fill:color(display-p3 0.0314 0.0431 0.0706);fill-opacity:1;"/>
</svg>
